<svg version="1.1" xmlns="http://www.w3.org/2000/svg" viewBox="0 0 476 367" width="476" height="367">
  <!-- svg-source:excalidraw -->
  
  <defs>
    <style>
      @font-face {
        font-family: "Virgil";
        src: url("https://excalidraw.com/Virgil.woff2");
      }
      @font-face {
        font-family: "Cascadia";
        src: url("https://excalidraw.com/Cascadia.woff2");
      }
    </style>
  </defs>
  <g stroke-linecap="round" transform="translate(193 168) rotate(0 49.5 50)"><path d="M-0.4926188960671425 0.7932679429650307 C27.908427448198193 2.5769150859490035, 57.50737265720962 -0.6536445015296342, 98.02242030948398 -0.7492408975958824 M0.19774125888943672 -0.8316921480000019 C35.98185303024947 -1.1849601845815776, 72.4097521856427 -0.30986708212643843, 99.841842520982 0.5803303234279156 M97.42274417728183 0.284181572496891 C101.64018699899313 22.65220366418362, 101.31956479325888 43.148132555186756, 100.27655138820407 100.41206000000238 M98.84881864860651 0.32498688623309135 C97.97399304062125 22.816495005041364, 98.24231920391318 45.930023845285184, 98.5408820994198 99.91982109472156 M98.89763941615817 98.95225737243891 C72.84339828677473 97.77152064081281, 46.29906774088739 100.34734227892011, 1.9298142418265343 98.0632672086358 M98.00925349071619 99.67525036260486 C69.45168440677223 99.97854071754962, 39.68267809748648 99.95398324627429, 0.38611995056271553 100.39613361284137 M0.6251820549368858 98.16297385841608 C0.4042666666209698 72.99808344244957, 1.0475269071757793 44.15690060704946, -0.11373839527368546 1.7339217439293861 M0.12350379303097725 99.6515933983028 C0.5398452281951904 79.52814038470387, 0.5902682542800903 58.8155264519155, 0.779045332223177 -0.7027682550251484" stroke="#862e9c" stroke-width="2" fill="none"></path></g><g stroke-linecap="round"><g transform="translate(291 168) rotate(0 0.8016043642416548 48.706083822995424)"><path d="M0.5636858716607094 1.6807109341025352 C2.350915783531964 29.46474525328726, 2.950773192457855 56.36991679999978, 1.09303829818964 98.05169191211462 M-0.6207612045109272 -0.7641029469668865 C1.0913328280672432 30.222966257221998, 1.2169812778010964 61.209548473469916, 1.0747276060283184 98.17627059295774" stroke="#862e9c" stroke-width="2" fill="none"></path></g></g><g transform="translate(10 10) rotate(0 56 16)"><text x="0" y="25" font-family="Helvetica, Segoe UI Emoji" font-size="28px" fill="#343a40" text-anchor="start" style="white-space: pre;" direction="ltr">Search 8</text></g><g transform="translate(229 183) rotate(0 18.5 35.5)"><text x="0" y="50" font-family="Virgil, Segoe UI Emoji" font-size="56.76923076923074px" fill="#343a40" text-anchor="start" style="white-space: pre;" direction="ltr">8</text></g><g transform="translate(27 322) rotate(0 219.5 17.5)"><text x="0" y="25" font-family="Virgil, Segoe UI Emoji" font-size="28px" fill="#862e9c" text-anchor="start" style="white-space: pre;" direction="ltr">(middleIndex === 8) - Found It</text></g><g transform="translate(194 167) rotate(0 6.5 -7)" stroke="none" fill="#343a40"><path d="M NaN NaN Q NaN NaN NaN NaN 0.7527003630313208 -15.234440575705953 NaN NaN NaN NaN NaN NaN 0.7527003630313208 -15.234440575705953 2.5478238960017823 -15.888924233494532 4.342947428972244 -16.54340789128311 6.315956200164532 -16.721742094095205 8.288964971356819 -16.9000762969073 10.599052112059827 -16.915795222014154 12.909139252762833 -16.93151414712101 14.096713784745223 -16.33074529512392 15.284288316727615 -15.729976443126825 15.496294901668225 -14.416085393425625 15.708301486608836 -13.102194343724426 14.769955642660408 -12.158391631454634 13.83160979871198 -11.214588919184843 12.516511516525732 -11.418973338194403 11.201413234339482 -11.623357757203964 10.593768327119424 -12.807428764058125 9.986123419899364 -13.991499770912286 10.586892271896456 -15.179074302894676 11.187661123893548 -16.36664883487707 12.50155217359475 -16.57865541981768 13.815443223295949 -16.79066200475829 14.75924593556574 -15.852316160809863 15.70304864783553 -14.913970316861437 15.49866422882597 -13.598872034675185 15.29427980981641 -12.283773752488935 14.110208802962253 -11.676128845268877 12.926137796108096 -11.068483938048818 11.674316659342974 -11.07312443113046 10.422495522577854 -11.0777649242121 8.91035811606794 -11.065848879709874 7.398220709558026 -11.053932835207647 5.6007127119397495 -10.929460987455837 3.8032047143214722 -10.804989139704027 2.294637965957232 -10.166847760715605 0.7860712175929916 -9.528706381727183 NaN NaN NaN NaN NaN NaN NaN NaN NaN NaN NaN NaN NaN NaN NaN NaN NaN NaN NaN NaN NaN NaN NaN NaN NaN NaN Z"></path></g><g transform="translate(193 167) rotate(0 50.5 -10)" stroke="none" fill="#343a40"><path d="M NaN NaN Q NaN NaN NaN NaN -2.0848667300110355 -21.921211857062133 NaN NaN NaN NaN NaN NaN -2.0848667300110355 -21.921211857062133 -0.09214991091550317 -21.931790254468837 1.9005669081800292 -21.942368651875544 4.071654272860858 -21.923643163250386 6.242741637541687 -21.904917674625228 8.074787818480868 -22.072545252309105 9.90683399942005 -22.240172829992986 13.106765091125933 -22.835529305553493 16.306696182831814 -23.430885781114 21.68189697145968 -23.388514179710036 27.05709776008754 -23.346142578306072 30.31246883559328 -23.403916197802467 33.567839911099014 -23.46168981729886 35.60268710353821 -23.50598236189991 37.6375342959774 -23.550274906500956 39.6482316578268 -23.670933095389714 41.65892901967619 -23.791591284278468 43.73995771949549 -23.918717963971375 45.820986419314806 -24.04584464366428 47.9976378395915 -24.185471108490958 50.17428925986819 -24.325097573317638 52.15215006713048 -24.36301646875718 54.13001087439277 -24.400935364196723 56.64719309107733 -24.467726554361086 59.16437530776188 -24.53451774452545 61.31388683917211 -24.579462828605806 63.463398370582354 -24.62440791268616 65.31838379830113 -24.666344458951393 67.1733692260199 -24.70828100521663 68.91030468502117 -24.74721843229735 70.64724014402245 -24.786155859378066 72.59393496305056 -24.806053314779327 74.54062978207867 -24.82595077018059 76.44345957172933 -24.82920480707776 78.34628936138 -24.832458843974926 80.24646622323311 -24.834332231353837 82.14664308508624 -24.83620561873275 83.74196663895205 -24.842746459517947 85.33729019281787 -24.849287300303146 86.85204457656985 -24.85842127708881 88.36679896032182 -24.86755525387447 90.01615246901963 -24.880757166153536 91.66550597771746 -24.8939590784326 93.65826475430964 -24.898258338532457 95.65102353090184 -24.902557598632313 97.52786351178608 -24.906529993836966 99.40470349267034 -24.910502389041618 101.05788986285283 -24.565570871923455 102.71107623303533 -24.220639354805297 104.4028788283995 -22.520261469927483 106.09468142376366 -20.819883585049674 106.31903788130532 -18.338798310467748 106.543394338847 -15.857713035885824 106.00340047758314 -13.871434617478364 105.46340661631929 -11.885156199070906 105.19356296720255 -10.29875458612137 104.92371931808583 -8.712352973171836 104.92324134075828 -7.140602351062071 104.92276336343073 -5.568851728952307 105.0340070585546 -2.8251014128222507 105.14525075367845 -0.08135109669219442 105.50969867590308 1.2053655843820064 105.87414659812771 2.492082265456207 105.04738805010521 3.5432399171147018 104.22062950208273 4.594397568773196 102.88426861638939 4.543390818657499 101.54790773069605 4.492384068541801 100.80367983801644 3.3812643859125586 100.05945194533682 2.2701447032833157 100.52092047170659 1.0149519274362886 100.98238899807636 -0.24024084841073856 102.26910567915056 -0.604688770635365 103.55582236022475 -0.9691366928599914 104.60698001188325 -0.14237814483750344 105.65813766354175 0.6843804031849845 105.60713091342606 2.020741288878323 105.55612416331036 3.3571021745716623 104.44500448068112 4.101330067251281 103.33388479805187 4.8455579599309 102.07869202220485 4.384089433561131 100.82349924635781 3.9226209071913622 100.23327707970743 2.5920083807742382 99.64305491305706 1.2613958543571142 99.38002638812601 -0.539164742447491 99.11699786319497 -2.3397253392520962 99.09734571353964 -3.956265372235195 99.07769356388431 -5.572805405218293 99.09166583862243 -7.214033553540148 99.10563811336056 -8.855261701862002 99.33981641037445 -10.857980854993585 99.57399470738834 -12.860700008125168 100.16361914823808 -14.656747765992343 100.75324358908783 -16.452795523859518 100.55600026414834 -18.59341669113949 100.35875693920883 -20.734037858419455 100.81844509515973 -20.256699251807078 101.27813325111063 -19.779360645194703 100.34141837189048 -19.434429128076545 99.40470349267034 -19.089497610958382 97.52786351178608 -19.093470006163034 95.65102353090184 -19.097442401367687 93.65826475430964 -19.101741661467543 91.66550597771746 -19.1060409215674 90.01615246901963 -19.119242833846464 88.36679896032182 -19.13244474612553 86.85204457656985 -19.14157872291119 85.33729019281787 -19.150712699696854 83.74196663895208 -19.157253540482053 82.14664308508627 -19.163794381267248 80.24646622323328 -19.16566776864613 78.34628936138029 -19.16754115602501 76.44345957173317 -19.170795192921688 74.54062978208606 -19.174049229818365 72.59393496332385 -19.193946685187235 70.64724014456164 -19.21384414055611 68.91030469396117 -19.25278156556335 67.1733692433607 -19.29171899057059 65.31838398555371 -19.333655504716113 63.46339872774672 -19.37559201886163 61.31388849662501 -19.420536589550416 59.164378265503295 -19.465481160239204 56.647212281676616 -19.53226413613846 54.130046297849944 -19.599047112037713 52.15228557844479 -19.636937576061698 50.174524859039636 -19.674828040085682 47.998598731629095 -19.81393093771264 45.82267260421855 -19.953033835339603 43.74392359732158 -20.07834090443677 41.665174590424606 -20.203647973533936 39.66202736742518 -20.317165049141295 37.658880144425765 -20.43068212474865 35.63834899746971 -20.44641021622411 33.61781785051366 -20.46213830769957 30.401675568438407 -20.405654114693604 27.185533286363157 -20.34916992168764 22.424680644667063 -19.849767070274247 17.663828002970973 -19.35036421886085 14.069545373381036 -18.117595694383635 10.4752627437911 -16.88482716990642 8.380454039547008 -16.4899547474394 6.285645335302914 -16.09508232497238 4.093106253408816 -16.0763568246005 1.9005671715147188 -16.057631324228616 -0.07393439353639575 -16.065093882088384 -2.0484359585875103 -16.07255643994815 NaN NaN NaN NaN NaN NaN NaN NaN NaN NaN NaN NaN NaN NaN NaN NaN NaN NaN NaN NaN NaN NaN NaN NaN NaN NaN Z"></path></g><g stroke-linecap="round"><g transform="translate(239.9677430266928 158.30669315506032) rotate(0 0.3814069735606722 -24.2422026962263)"><path d="M-0.5330382451415062 0.11086877435445786 C-0.505579999490529 -8.046314442165118, 0.27112581827268134 -40.85642133358827, 0.45591286031037725 -48.595274166807066 M1.3879779468197375 -0.8765290644485504 C1.209766207951233 -8.959535020867285, -0.35047336945719904 -39.79081224263607, -0.6251639996983842 -47.65638364972314" stroke="#343a40" stroke-width="2" fill="none"></path></g><g transform="translate(239.9677430266928 158.30669315506032) rotate(0 0.3814069735606722 -24.2422026962263)"><path d="M8.634212693688674 -26.1520849926085 C3.5432047737283963 -33.102780890830324, 4.389020228660015 -39.48738784485708, 0.9645419220111533 -46.96183680863818 M9.190678412583871 -24.995368202558232 C6.3212026496821725 -30.04966184809092, 4.384350932957658 -36.42919898069675, -0.3927548093118505 -47.03235450135311" stroke="#343a40" stroke-width="2" fill="none"></path></g><g transform="translate(239.9677430266928 158.30669315506032) rotate(0 0.3814069735606722 -24.2422026962263)"><path d="M-7.582999339331065 -25.448902226157827 C-7.4173936569107415 -32.55557809191687, -1.3129263942753626 -39.16820163217392, 0.9645419220111533 -46.96183680863818 M-7.026533620435868 -24.29218543610756 C-6.273436421462451 -29.647488067190665, -4.58528229200435 -36.184206448591205, -0.3927548093118505 -47.03235450135311" stroke="#343a40" stroke-width="2" fill="none"></path></g></g><g transform="translate(164 68.5) rotate(0 81.5 17.5)"><text x="0" y="25" font-family="Virgil, Segoe UI Emoji" font-size="28px" fill="#343a40" text-anchor="start" style="white-space: pre;" direction="ltr">MiddleIndex</text></g><g stroke-linecap="round" transform="translate(193 169) rotate(0 49.5 48)"><path d="M0 0 C0 0, 0 0, 0 0 M0 0 C0 0, 0 0, 0 0 M0.5928625413309443 11.047911179482519 C1.8689474508727477 7.750264238326901, 5.941216143234788 4.49145339588991, 10.291047735464705 -1.1361504857346654 M0.15968514467586148 11.54179724198538 C2.4752556693294263 9.199403301055407, 5.758455051910453 5.39217168013599, 10.349727199924123 -0.619721565108025 M1.8771923335454677 23.911489760219215 C5.880338474313726 17.317261293753525, 13.25646564156651 7.0778436434437655, 23.08867373904016 -0.8327209973544356 M-0.31719763183973093 24.513470651297926 C7.604162734322385 15.198373218954071, 15.924946857624349 5.343420324132676, 21.33000099872973 0.27543147785360844 M0.4746783989388028 37.52162893656765 C6.7565741298423605 25.510328064560255, 15.71389666729489 18.964789726997896, 32.04763650283853 0.15746121120296763 M-0.6678530220967254 36.38740413058673 C10.435281760989145 25.596608875890954, 20.178852711827194 15.262463546701618, 31.08518036962191 -0.5625452882365103 M-1.3299658987671918 50.516912963845655 C13.413985880512241 31.361613884357162, 31.215936213351725 13.12438555413857, 42.85490401517205 0.6661599602877146 M-0.074626659974534 48.99730872423284 C13.674322830675324 32.366383696569585, 28.195789325621934 16.182611130464558, 41.52454476859026 -1.105031789434051 M-0.9835710729380338 60.321729156651 C10.611649950735107 44.73976001370691, 25.359379915437724 32.9010726355929, 53.883767291665734 1.8239904842748054 M0.5670425427238257 59.99157077027152 C13.525751863500936 45.26954458813725, 29.046034944722685 29.102848381901985, 53.76418306282228 -0.6263200179265134 M-0.6753461079487195 71.6291927493587 C23.016560316807876 47.743144565610834, 42.69088206929376 21.069190262611407, 64.35907984794457 -1.4649944824607601 M-0.8455065468141427 73.81464827651529 C26.07959381434735 43.53564410072508, 51.052800669325265 15.853126310282732, 63.93190286950548 0.2750792840986023 M0.257062511825751 84.90585647634373 C28.37575956751352 48.79172301667111, 58.52924749452469 18.304153474770075, 74.60725769963356 -0.7733047055439783 M-0.4032163114009393 84.58678050077663 C21.042781794492416 62.46745498317253, 40.94537529723589 37.687865366004885, 75.04223055582735 -0.1985633755462004 M2.23362983100089 95.38700099175834 C33.65770556241544 58.57258218043202, 67.78217117626546 23.734869372425806, 86.30627936235771 1.59998754940014 M0.3457486451414482 95.47427837064528 C33.98567262690028 59.02971098038686, 65.18946949753169 20.891790128880714, 84.87141123897538 -0.9191962390484321 M13.55466077106879 95.77011990685871 C37.931521239088944 64.67924194440657, 66.39956507472534 32.42632287918038, 94.73568585174203 0.3792475167466023 M12.143709845867612 95.75800952081492 C39.447329691336265 64.02422151939571, 68.175969613906 32.65507254354663, 95.83240878613711 0.2920137014044144 M22.44025188380634 96.4174317395842 C41.88042418398919 72.92021426712729, 62.814601207884664 45.267722795822955, 101.74628553845895 2.8358258319842733 M21.687936694116942 97.41091024266242 C38.654172662579256 78.08552353630435, 55.4256322466331 58.518223097701096, 103.56961066954744 2.563228604738704 M32.77112474281955 96.87982006386426 C51.297710393024715 74.43801989548496, 71.89451362954381 51.6734677103506, 102.63439026419046 13.519220210824784 M32.99647986505795 96.99692563355472 C53.18783993462356 72.68310531514533, 75.9341984114568 46.60996195047534, 103.45806408245089 15.078101460103568 M42.56138633474291 97.49573469429666 C66.2367233987584 69.23665244621546, 88.38716309124932 44.16794231770054, 102.20087786345711 28.42230300519263 M43.50593169688762 97.6449107815271 C55.34757161721023 81.65662313998635, 70.17427417512863 65.71704010129073, 102.28753846093049 27.616003642861003 M54.832765175201445 96.1223533652564 C65.14450867129753 81.45042519830011, 80.41771455920399 68.29670088335726, 103.97548032289342 40.61789902968559 M52.57066230679348 96.15479244439206 C72.04826970529157 75.169004076228, 88.2909717141957 56.158910609827565, 103.11181364318327 40.56360274104628 M65.20855227982013 96.6402913111185 C78.64887903361064 82.57732529932665, 90.83189362535596 67.54383998710476, 104.30766921610538 52.68814185823314 M64.681760561963 95.8772786299621 C74.80781219737291 84.68921511666628, 84.89770201074013 70.87729025083493, 102.96456530437771 51.71921885202639 M74.16360116422396 96.70360126625793 C84.16905180325891 85.32336030091561, 97.41353615861959 71.9587498809327, 104.68030152972753 65.00273130543302 M75.3420340795837 96.83885859604972 C84.31950503358372 86.61557049525206, 95.5524075727252 73.93773454067993, 102.79801078271086 64.94608206383656 M87.27432784403796 95.48977346504971 C90.23825647157682 90.1097541805806, 97.63348403285751 80.95523866057125, 102.5838557793848 76.45009510566024 M84.94100922684306 95.86680285046741 C91.46939140734804 90.39696529203395, 96.13800514100942 84.1574490332668, 103.98214519537015 77.2784941342893 M95.74375163836426 97.14436028824937 C98.95865824037841 94.08362065279015, 99.86233571630974 92.82918127947482, 103.1941580120656 88.72934743442819 M96.38242279568708 96.73979541828673 C99.11560865071795 93.35217145023006, 101.3950631872197 89.9676758308288, 103.42147819792808 88.10203920227723" stroke="#fa5252" stroke-width="1" fill="none"></path><path d="M1.7466041818261147 -1.6695390716195107 C26.836222003772857 2.7243615769967438, 49.355748578161005 1.4017252111062408, 97.06223437935114 -1.8842743411660194 M0.5590751878917217 -0.8816052787005901 C30.68831584043801 0.5413208435848356, 61.00537311285734 0.4888767432048917, 99.16275567933917 0.3793973810970783 M99.42243907600641 -0.4433620944619179 C97.12019921809434 28.908076773583893, 98.30718876391649 53.8338793501258, 97.95289013534784 94.95972337573767 M99.5711695663631 0.926137913018465 C97.68506187006831 32.70803895071148, 98.21142679259181 65.5431512005627, 99.21435124799609 96.94909201934934 M98.41752598434687 95.39679040759802 C71.52319164685905 93.47649603310973, 45.39519184306263 95.84821086350829, -0.6650829538702965 95.7807337269187 M99.17845971509814 96.4289075024426 C70.09527654908598 96.77626168172806, 40.79341586232185 95.17193006914108, 0.4996923916041851 96.65143512561917 M-0.41828157752752304 97.1299711689353 C1.1246217134594918 74.09105909913778, -1.0631598588824271 48.407272456586355, 1.7222311273217201 1.8187469467520714 M-0.3037467487156391 95.84069274738431 C-0.14982658103108415 64.48290054872632, 0.15730768963694564 31.838719952851534, -0.5604445226490498 0.7824472077190876" stroke="#2b8a3e" stroke-width="2" fill="none"></path></g><g stroke-linecap="round"><g transform="translate(201.81705301827117 274.88087340640226) rotate(0 41.76671113373544 7.1732378025944)"><path d="M-0.7704527733318505 -1.2603108604352253 C1.29995952009125 3.7854384329983826, -1.0038927720105972 11.907751753659978, 0.6415725025075572 15.464779633018646 M-0.5746345834628068 -0.5860351073209251 C0.14031167465226807 5.265776517477892, 0.2822825648616198 8.608971256544702, -0.7387257627953918 15.834311073907081 M1.8191791996359825 17.761364451041814 C17.366610202157798 16.443879422176725, 33.39319006942571 15.456483897198087, 84.09209495739455 15.948347797980901 M0.2554652579128742 15.725683534881469 C25.955559138128525 16.567923925744342, 51.40881540237738 17.53237249694948, 83.68918135346289 16.905772412559386 M83.75049983966036 16.51665380746765 C82.31461612557433 9.605101214276786, 81.64580821577336 4.826952535006951, 84.30387504080268 -3.41488884585299 M82.89520195245495 15.608156255990481 C82.92691980904738 11.248985290875398, 83.9632386284226 6.674029662650301, 83.6286925253677 -1.2074474823798105" stroke="#2b8a3e" stroke-width="2" fill="none"></path></g></g></svg>