<svg version="1.1" xmlns="http://www.w3.org/2000/svg" viewBox="0 0 726 365" width="726" height="365">
  <!-- svg-source:excalidraw -->
  
  <defs>
    <style>
      @font-face {
        font-family: "Virgil";
        src: url("https://excalidraw.com/Virgil.woff2");
      }
      @font-face {
        font-family: "Cascadia";
        src: url("https://excalidraw.com/Cascadia.woff2");
      }
    </style>
  </defs>
  <g stroke-linecap="round" transform="translate(59 185) rotate(0 297.5 50)"><path d="M-0.197047558426857 0.3173071771860123 C168.64761648140848 2.6145729718357322, 337.9714400671422 1.3223491368442772, 594.6089681237936 -0.29969635903835296 M0.07909650355577469 -0.3326768592000008 C219.68613599427047 -2.4129862970858813, 439.55069043859845 -2.0629490561038257, 595.3367370083928 0.23213212937116623 M593.4227441772819 0.284181572496891 C597.6401869989932 22.65220366418362, 597.3195647932589 43.148132555186756, 596.2765513882041 100.41206000000238 M594.8488186486065 0.32498688623309135 C593.9739930406213 22.816495005041364, 594.2423192039132 45.930023845285184, 594.5408820994198 99.91982109472156 M594.9590557664633 99.58090294897556 C435.4644833985716 97.37955740712583, 275.77387526407836 98.40988606236876, 0.7719256967306137 99.22530688345432 M594.6037013962865 99.87010014504195 C417.35411656312647 98.07063043959438, 239.61995683982968 98.06080745108424, 0.1544479802250862 100.15845344513654 M0.6251820549368858 98.16297385841608 C0.4042666666209698 72.99808344244957, 1.0475269071757793 44.15690060704946, -0.11373839527368546 1.7339217439293861 M0.12350379303097725 99.6515933983028 C0.5398452281951904 79.52814038470387, 0.5902682542800903 58.8155264519155, 0.779045332223177 -0.7027682550251484" stroke="#862e9c" stroke-width="2" fill="none"></path></g><g stroke-linecap="round"><g transform="translate(152 185) rotate(0 1.186184622429323 48.78772569820285)"><path d="M1.2643624767661095 0.04111597687005997 C0.16094984959810965 32.99708658281714, 0.6029458864405751 68.21100736346096, 1.7444437965750694 98.04650447517633 M0.8864006884396076 -0.5523683317005634 C1.7951101044192912 39.46472697447985, 1.1026392033323646 77.92020956207067, 1.2851635105907917 98.12781972810626" stroke="#862e9c" stroke-width="2" fill="none"></path></g></g><g stroke-linecap="round"><g transform="translate(251 185) rotate(0 0.5222814905345672 48.78063637576997)"><path d="M0.0008065477013587952 -1.0671359077095985 C0.5697299956157803 31.370695383511485, 1.950600976757705 61.736744026876984, -0.2427520975470543 98.11349930614233 M0.990289282053709 0.25393401458859444 C0.8275881817564368 28.44245452631265, 1.492166487313807 57.05047222983092, 1.2245163433253765 98.62840865924954" stroke="#862e9c" stroke-width="2" fill="none"></path></g></g><g stroke-linecap="round"><g transform="translate(358 183) rotate(0 1.2215687092393637 50.031635189428926)"><path d="M0.4717666134238243 0.6461965814232826 C1.1851623768731951 24.586851049102847, 0.9412594898417592 50.008472702167936, 0.9189805015921593 100.10779235512018 M0.9660863764584064 -0.04452197626233101 C1.827521474696696 20.2226837034151, 0.5387954142317177 42.16434740711004, 1.971370805054903 98.04013080522418" stroke="#862e9c" stroke-width="2" fill="none"></path></g></g><g stroke-linecap="round"><g transform="translate(455 183) rotate(0 1.094921063390359 50.680118180811405)"><path d="M-0.30302152782678604 0.8478302732110023 C2.36030466388911 19.336242172159256, 2.857058260031044 38.948425727747384, 2.2882582172751427 100.51240608841181 M0.6305438168346882 0.9805824272334576 C0.6127304974570871 36.131277299635116, 1.112228073142469 71.82688383866102, 1.842664945870638 99.27960212156177" stroke="#862e9c" stroke-width="2" fill="none"></path></g></g><g stroke-linecap="round"><g transform="translate(555 185) rotate(0 0.8016043642416548 48.706083822995424)"><path d="M0.5636858716607094 1.6807109341025352 C2.350915783531964 29.46474525328726, 2.950773192457855 56.36991679999978, 1.09303829818964 98.05169191211462 M-0.6207612045109272 -0.7641029469668865 C1.0913328280672432 30.222966257221998, 1.2169812778010964 61.209548473469916, 1.0747276060283184 98.17627059295774" stroke="#862e9c" stroke-width="2" fill="none"></path></g></g><g transform="translate(88 200) rotate(0 21.5 35.5)"><text x="0" y="50" font-family="Virgil, Segoe UI Emoji" font-size="56.76923076923074px" fill="#343a40" text-anchor="start" style="white-space: pre;" direction="ltr">2</text></g><g transform="translate(181 199) rotate(0 20.5 35.5)"><text x="0" y="50" font-family="Virgil, Segoe UI Emoji" font-size="56.76923076923074px" fill="#343a40" text-anchor="start" style="white-space: pre;" direction="ltr">3</text></g><g transform="translate(287 200) rotate(0 14 35.5)"><text x="0" y="50" font-family="Virgil, Segoe UI Emoji" font-size="56.76923076923074px" fill="#343a40" text-anchor="start" style="white-space: pre;" direction="ltr">6</text></g><g transform="translate(389 199) rotate(0 18.5 35.5)"><text x="0" y="50" font-family="Virgil, Segoe UI Emoji" font-size="56.76923076923074px" fill="#343a40" text-anchor="start" style="white-space: pre;" direction="ltr">8</text></g><g transform="translate(487 199) rotate(0 27 35.5)"><text x="0" y="50" font-family="Virgil, Segoe UI Emoji" font-size="56.76923076923074px" fill="#343a40" text-anchor="start" style="white-space: pre;" direction="ltr">10</text></g><g transform="translate(584 199) rotate(0 26.5 35.5)"><text x="0" y="50" font-family="Virgil, Segoe UI Emoji" font-size="56.76923076923074px" fill="#343a40" text-anchor="start" style="white-space: pre;" direction="ltr">12</text></g><g transform="translate(70 10) rotate(0 56 16)"><text x="0" y="25" font-family="Helvetica, Segoe UI Emoji" font-size="28px" fill="#343a40" text-anchor="start" style="white-space: pre;" direction="ltr">Search 8</text></g><g transform="translate(10 320) rotate(0 353 17.5)"><text x="0" y="25" font-family="Virgil, Segoe UI Emoji" font-size="28px" fill="#862e9c" text-anchor="start" style="white-space: pre;" direction="ltr">(6 &lt; 8) - This means 8 is on right of middleIndex.</text></g><g transform="translate(254 167) rotate(0 6.5 -7)" stroke="none" fill="#343a40"><path d="M NaN NaN Q NaN NaN NaN NaN 0.7527003630313208 -15.234440575705953 NaN NaN NaN NaN NaN NaN 0.7527003630313208 -15.234440575705953 2.5478238960017823 -15.888924233494532 4.342947428972244 -16.54340789128311 6.315956200164532 -16.721742094095205 8.288964971356819 -16.9000762969073 10.599052112059827 -16.915795222014154 12.909139252762833 -16.93151414712101 14.096713784745223 -16.33074529512392 15.284288316727615 -15.729976443126825 15.496294901668225 -14.416085393425625 15.708301486608836 -13.102194343724426 14.769955642660408 -12.158391631454634 13.83160979871198 -11.214588919184843 12.516511516525732 -11.418973338194403 11.201413234339482 -11.623357757203964 10.593768327119424 -12.807428764058125 9.986123419899364 -13.991499770912286 10.586892271896456 -15.179074302894676 11.187661123893548 -16.36664883487707 12.50155217359475 -16.57865541981768 13.815443223295949 -16.79066200475829 14.75924593556574 -15.852316160809863 15.70304864783553 -14.913970316861437 15.49866422882597 -13.598872034675185 15.29427980981641 -12.283773752488935 14.110208802962253 -11.676128845268877 12.926137796108096 -11.068483938048818 11.674316659342974 -11.07312443113046 10.422495522577854 -11.0777649242121 8.91035811606794 -11.065848879709874 7.398220709558026 -11.053932835207647 5.6007127119397495 -10.929460987455837 3.8032047143214722 -10.804989139704027 2.294637965957232 -10.166847760715605 0.7860712175929916 -9.528706381727183 NaN NaN NaN NaN NaN NaN NaN NaN NaN NaN NaN NaN NaN NaN NaN NaN NaN NaN NaN NaN NaN NaN NaN NaN NaN NaN Z"></path></g><g transform="translate(253 167) rotate(0 50.5 -10)" stroke="none" fill="#343a40"><path d="M NaN NaN Q NaN NaN NaN NaN -2.0848667300110355 -21.921211857062133 NaN NaN NaN NaN NaN NaN -2.0848667300110355 -21.921211857062133 -0.09214991091550317 -21.931790254468837 1.9005669081800292 -21.942368651875544 4.071654272860858 -21.923643163250386 6.242741637541687 -21.904917674625228 8.074787818480868 -22.072545252309105 9.90683399942005 -22.240172829992986 13.106765091125933 -22.835529305553493 16.306696182831814 -23.430885781114 21.68189697145968 -23.388514179710036 27.05709776008754 -23.346142578306072 30.31246883559328 -23.403916197802467 33.567839911099014 -23.46168981729886 35.60268710353821 -23.50598236189991 37.6375342959774 -23.550274906500956 39.6482316578268 -23.670933095389714 41.65892901967619 -23.791591284278468 43.73995771949549 -23.918717963971375 45.820986419314806 -24.04584464366428 47.9976378395915 -24.185471108490958 50.17428925986819 -24.325097573317638 52.15215006713048 -24.36301646875718 54.13001087439277 -24.400935364196723 56.64719309107733 -24.467726554361086 59.16437530776188 -24.53451774452545 61.31388683917211 -24.579462828605806 63.463398370582354 -24.62440791268616 65.31838379830113 -24.666344458951393 67.1733692260199 -24.70828100521663 68.91030468502117 -24.74721843229735 70.64724014402245 -24.786155859378066 72.59393496305056 -24.806053314779327 74.54062978207867 -24.82595077018059 76.44345957172933 -24.82920480707776 78.34628936138 -24.832458843974926 80.24646622323311 -24.834332231353837 82.14664308508624 -24.83620561873275 83.74196663895205 -24.842746459517947 85.33729019281787 -24.849287300303146 86.85204457656985 -24.85842127708881 88.36679896032182 -24.86755525387447 90.01615246901963 -24.880757166153536 91.66550597771746 -24.8939590784326 93.65826475430964 -24.898258338532457 95.65102353090184 -24.902557598632313 97.52786351178608 -24.906529993836966 99.40470349267034 -24.910502389041618 101.05788986285283 -24.565570871923455 102.71107623303533 -24.220639354805297 104.4028788283995 -22.520261469927483 106.09468142376366 -20.819883585049674 106.31903788130532 -18.338798310467748 106.543394338847 -15.857713035885824 106.00340047758314 -13.871434617478364 105.46340661631929 -11.885156199070906 105.19356296720255 -10.29875458612137 104.92371931808583 -8.712352973171836 104.92324134075828 -7.140602351062071 104.92276336343073 -5.568851728952307 105.0340070585546 -2.8251014128222507 105.14525075367845 -0.08135109669219442 105.50969867590308 1.2053655843820064 105.87414659812771 2.492082265456207 105.04738805010521 3.5432399171147018 104.22062950208273 4.594397568773196 102.88426861638939 4.543390818657499 101.54790773069605 4.492384068541801 100.80367983801644 3.3812643859125586 100.05945194533682 2.2701447032833157 100.52092047170659 1.0149519274362886 100.98238899807636 -0.24024084841073856 102.26910567915056 -0.604688770635365 103.55582236022475 -0.9691366928599914 104.60698001188325 -0.14237814483750344 105.65813766354175 0.6843804031849845 105.60713091342606 2.020741288878323 105.55612416331036 3.3571021745716623 104.44500448068112 4.101330067251281 103.33388479805187 4.8455579599309 102.07869202220485 4.384089433561131 100.82349924635781 3.9226209071913622 100.23327707970743 2.5920083807742382 99.64305491305706 1.2613958543571142 99.38002638812601 -0.539164742447491 99.11699786319497 -2.3397253392520962 99.09734571353964 -3.956265372235195 99.07769356388431 -5.572805405218293 99.09166583862243 -7.214033553540148 99.10563811336056 -8.855261701862002 99.33981641037445 -10.857980854993585 99.57399470738834 -12.860700008125168 100.16361914823808 -14.656747765992343 100.75324358908783 -16.452795523859518 100.55600026414834 -18.59341669113949 100.35875693920883 -20.734037858419455 100.81844509515973 -20.256699251807078 101.27813325111063 -19.779360645194703 100.34141837189048 -19.434429128076545 99.40470349267034 -19.089497610958382 97.52786351178608 -19.093470006163034 95.65102353090184 -19.097442401367687 93.65826475430964 -19.101741661467543 91.66550597771746 -19.1060409215674 90.01615246901963 -19.119242833846464 88.36679896032182 -19.13244474612553 86.85204457656985 -19.14157872291119 85.33729019281787 -19.150712699696854 83.74196663895208 -19.157253540482053 82.14664308508627 -19.163794381267248 80.24646622323328 -19.16566776864613 78.34628936138029 -19.16754115602501 76.44345957173317 -19.170795192921688 74.54062978208606 -19.174049229818365 72.59393496332385 -19.193946685187235 70.64724014456164 -19.21384414055611 68.91030469396117 -19.25278156556335 67.1733692433607 -19.29171899057059 65.31838398555371 -19.333655504716113 63.46339872774672 -19.37559201886163 61.31388849662501 -19.420536589550416 59.164378265503295 -19.465481160239204 56.647212281676616 -19.53226413613846 54.130046297849944 -19.599047112037713 52.15228557844479 -19.636937576061698 50.174524859039636 -19.674828040085682 47.998598731629095 -19.81393093771264 45.82267260421855 -19.953033835339603 43.74392359732158 -20.07834090443677 41.665174590424606 -20.203647973533936 39.66202736742518 -20.317165049141295 37.658880144425765 -20.43068212474865 35.63834899746971 -20.44641021622411 33.61781785051366 -20.46213830769957 30.401675568438407 -20.405654114693604 27.185533286363157 -20.34916992168764 22.424680644667063 -19.849767070274247 17.663828002970973 -19.35036421886085 14.069545373381036 -18.117595694383635 10.4752627437911 -16.88482716990642 8.380454039547008 -16.4899547474394 6.285645335302914 -16.09508232497238 4.093106253408816 -16.0763568246005 1.9005671715147188 -16.057631324228616 -0.07393439353639575 -16.065093882088384 -2.0484359585875103 -16.07255643994815 NaN NaN NaN NaN NaN NaN NaN NaN NaN NaN NaN NaN NaN NaN NaN NaN NaN NaN NaN NaN NaN NaN NaN NaN NaN NaN Z"></path></g><g stroke-linecap="round"><g transform="translate(304 171) rotate(0 0.42746985083914524 -30.514598692953584)"><path d="M-0.5330382451415062 0.11086877435445786 C-0.457130998869737 -10.137113107740879, 0.5133708213766416 -51.31041466146708, 0.7466068640351295 -61.14006616026163 M1.3879779468197375 -0.8765290644485504 C1.258215208572025 -11.050333686443047, -0.10822836635323876 -50.24480557051488, -0.3344699959736319 -60.201175643177706" stroke="#343a40" stroke-width="2" fill="none"></path></g><g transform="translate(304 171) rotate(0 0.42746985083914524 -30.514598692953584)"><path d="M10.931297617399128 -32.74497996262303 C5.172438295469648 -41.63457186807531, 5.367654176512699 -49.94916247020707, 1.2552359257359056 -59.50662880209275 M11.487763336294325 -31.58826317257276 C8.149209940977356 -37.95517990013927, 5.76387307157265 -45.66513445973052, -0.10206080558709818 -59.57714649480768" stroke="#343a40" stroke-width="2" fill="none"></path></g><g transform="translate(304 171) rotate(0 0.42746985083914524 -30.514598692953584)"><path d="M-9.58112638142434 -32.14459335523538 C-8.690293180394491 -41.137752905284444, -1.8436445301325106 -49.64702703944573, 1.2552359257359056 -59.50662880209275 M-9.024660662529143 -30.98787656518511 C-7.780184008556555 -37.67091794293415, -5.580413600353208 -45.51507590057672, -0.10206080558709818 -59.57714649480768" stroke="#343a40" stroke-width="2" fill="none"></path></g></g><g stroke-linecap="round" transform="translate(253 189) rotate(0 53 46)"><path d="M0 0 C0 0, 0 0, 0 0 M0 0 C0 0, 0 0, 0 0 M0.06223701465410503 5.8230726555484456 C1.973187351306318 4.509539812133617, 3.2563767992253845 3.2281725283731286, 4.683418234767861 -0.17903508135702073 M-0.4978191099734852 6.553880757142894 C1.4758725967794928 4.255078246453285, 4.011089481396793 1.9791474429889304, 4.923315809252209 0.7167828526196294 M-0.029000442372669077 12.299824822365819 C5.272801879488993 8.208964751974793, 6.678005466104425 4.613197136864551, 9.773304624807967 -1.1138449971482394 M-0.5369807145465506 11.584106716930448 C4.107560836900435 8.082235895585304, 7.274245486522474 3.780572140973416, 10.881909607303275 0.35726503386048103 M-0.25534803704826636 18.25522052394288 C3.1666415710535496 14.474700341510054, 8.63259331347015 4.711194137637451, 14.486004337205966 0.9533266059053114 M-0.5309773451229791 19.352890449483567 C4.585662784209793 11.86290231961692, 10.153854378244786 7.964868036622047, 16.54260333208688 1.0434085025382211 M0.4570034297368739 25.97291401559031 C10.08947778005174 14.791518689843087, 17.836705007998468 5.853904793311248, 19.889432100856567 0.5741622423916581 M0.45582406615831594 25.04385471501863 C7.700815055608373 14.210914688796736, 16.13594878953464 6.39865705215994, 21.139033438915277 0.08035167438681157 M1.76150295981666 30.649868784237853 C9.750251804943774 16.679930841486687, 19.268361388768987 6.016627385324519, 28.12743956842682 1.5719837652531208 M0.9309565546502725 31.34434499754404 C9.567079203234904 20.05417185592923, 17.79828562853008 11.056159329572036, 27.01468817764184 -0.050400816461747766 M-0.5781244021933993 37.677615484037744 C12.105675595399033 24.777638007028862, 22.56326250263028 10.127160449687384, 32.53387331352273 -0.7054502515808458 M-0.07561948346910086 36.092547224649536 C6.817911533851382 29.282304712624402, 13.730063281367903 20.964501114343843, 32.33605572343508 0.441658627359498 M-0.4465911116777903 40.7211222691422 C14.805943725349984 27.850511494951483, 27.867860578100384 12.113351032253764, 36.4199062937883 2.131894586710306 M0.7277750979782098 42.55242857392483 C13.465417210831387 28.32746236952852, 27.630394659202086 12.442398131081031, 37.78210688550149 0.9166571741085967 M0.9047757890074664 47.73292353437178 C14.864971455209425 30.781025754095296, 29.47962670799307 15.527479488272725, 42.572510082829524 1.2286518540560252 M0.8013611081986838 49.80286621362798 C14.269938692197515 32.72757825267305, 28.93472860534619 17.330126584560517, 41.66776733900957 0.39166492115249696 M-0.29955212653161567 55.42015285365592 C18.03770809179963 34.19622599288933, 31.343700763274093 18.736209285711503, 48.255982638290405 0.27173094527686104 M0.24131422236083466 53.57968024112593 C11.144847531681505 42.698577467452964, 21.030267504829325 31.366317950801896, 46.570445393165826 -0.29662846325075165 M0.6422230993489535 59.03221962181519 C11.307837856080223 46.94708308345606, 21.67007049861542 34.153204678468626, 54.71042053377694 1.2026404343022712 M0.40629274967115236 60.438310324676735 C10.50738329302527 46.89809601487665, 22.254024623348258 34.958980601132374, 52.45350422313875 -0.4045903817341916 M-2.248360988735321 66.8278419930018 C14.39920286774088 50.828120965582514, 31.39301154816406 33.95861070343368, 58.15324672693313 2.005164715952798 M0.38485083630764194 66.59584864187012 C12.803579605714468 54.125789842245, 22.924797482590158 40.76099100152764, 57.29278963813485 0.8810313339602196 M0.6517956538310656 74.08917562136797 C11.948844626873264 57.34089960510779, 27.927177233242546 44.86060453299996, 63.27768279136498 -1.5823126358421078 M0.9022613784483084 72.3201686202958 C15.72683160606774 54.88918349264823, 31.075489592024784 37.63756751258959, 64.20010231332262 0.5304317811994324 M0.8491784846921036 81.13594240173427 C15.257728286882225 62.67260039275128, 28.750809551165784 47.44752568821219, 70.25427668471649 1.7208677737380995 M0.22733893529964178 80.31905367821184 C18.655485696251635 56.085870216945594, 38.669541315208704 33.1065687768865, 68.04972555790856 -0.1665743717585073 M0.5760715774538028 83.79246340803013 C17.437982084433788 64.920745385926, 30.228025597060817 48.89893680047634, 76.22937498059365 0.4499645186228918 M0.639852932030152 84.58223016298518 C21.817840688789367 60.75988884491052, 44.32943958946582 35.596996535243406, 74.60189754706117 0.48677047245337235 M-0.2079146102398468 91.17533553507612 C29.065976050820726 60.40458474790624, 56.80514453208468 25.912865238241253, 78.32665063664047 -1.8174880063672134 M-0.9429445721536709 90.54404399287388 C28.01744989067244 60.59619866526384, 56.752081725200114 26.89411920226015, 79.12933908998696 0.7568434820930889 M4.306865111179192 92.38691653591059 C31.04352810768905 62.73330150841862, 62.05513025675671 26.780901844273117, 83.14557522646294 -0.7493562273027408 M2.7813894638787104 94.1519456943538 C29.529027637982345 62.27496502326163, 56.33830886415974 32.16086844488452, 85.54072586185441 -0.43303524547238226 M7.53314619935491 96.34067830535407 C30.884744668629896 68.72446416371099, 55.10926434432034 41.81720174920956, 89.76294670770505 -1.4712307493631585 M8.878544599333786 94.06684368568297 C33.50794045108104 65.74366185366478, 59.78225076021774 36.04088634828531, 91.00721617187003 0.6600739580149906 M11.985226611931303 93.47353023822714 C42.16163055087161 60.03838812591078, 70.39097843705505 28.766441481454663, 95.23136165397287 -0.8541029986189983 M13.300929143418053 93.75042763511945 C44.80263157619697 57.750179951216786, 76.84579307452154 22.340456204550065, 95.08592319520235 0.6860536899221756 M17.528966806552333 95.49581922935033 C45.49293592206441 60.985533967693165, 75.34422123795248 31.880390705631882, 101.5807430229103 -1.7266885802497214 M18.762670155337972 93.59016846092129 C37.04843270837442 76.29568302379846, 53.42375897896216 55.62681959629874, 100.34644274105781 -0.6355938814927882 M23.59996682783352 92.87720093287584 C52.38809916635166 61.410503691815045, 80.02544772903092 29.167433131994855, 105.3168123881234 0.8368960796741263 M24.582790531271563 94.76018959067818 C51.33320645929862 62.50239671709622, 78.78441765275713 29.397816981383798, 105.49432548460496 -0.42842365886294687 M27.485389220390374 92.86076850295595 C56.4340803643601 61.86921440960194, 83.4769573483538 31.91882215083202, 107.1741454753321 7.342487017755261 M28.592031917396838 93.61039570197991 C54.82562775898087 64.34498111315509, 80.71926081980071 33.76860974600582, 106.74913250312622 5.5413056678519155 M34.60578194186688 93.47718133441116 C55.28472534087902 71.1033502612626, 75.19009706483172 45.585464455323766, 104.70400206107595 14.229875746363746 M35.03967762292028 94.05560146308447 C51.08203058785021 75.83042980374267, 66.44170751570928 57.325041997701824, 106.05726517472365 11.593634634459363 M39.35749156586905 94.01169800117094 C63.97216560192729 67.55624661515161, 85.19859260439728 39.386927044777494, 106.81073218997047 17.9999679196518 M39.0609658230104 94.41756447135884 C59.696409516592155 73.78291833123568, 78.09594565644655 50.28119037966811, 105.25337139557526 18.637061668549116 M44.11419105004085 92.79185289805584 C67.441953768986 68.36875360692483, 90.56696197974736 39.67652126991648, 105.28207131965962 23.191235432439967 M45.30361732687367 95.58766189506106 C62.57134618885922 74.16415273023962, 82.1695319539682 53.60626155370368, 105.21564072488752 24.519995188379212 M48.72535196798833 92.89977959899531 C70.2468865706356 69.86452169752936, 90.96797974627839 48.04939158769511, 107.63155352374945 28.846749358657718 M51.05130780967863 95.11421383155809 C68.35110918353129 73.10562016288237, 86.65616208021086 52.49608555388923, 106.33321758782897 30.87278654131663 M57.51777227735546 95.95988749880989 C67.8152540361952 80.27943842985964, 77.64856904086207 68.72051125104932, 104.10003925988391 38.301856593125564 M54.85019558063176 95.36515994910796 C71.65995910983375 75.1053797696512, 87.04087366105126 55.92101429336581, 105.13272904360608 37.270406645619374 M60.79404855174825 95.85118517142905 C72.8103140788344 83.56523376199054, 82.77822588157406 68.28842068847743, 104.49812857267854 41.65121278999577 M61.63239381490156 93.61538284507765 C78.64459170495196 74.36798507611014, 95.69581701396241 54.33015033350892, 106.74569798839686 42.07447892887721 M65.83410374881069 96.49495701167334 C76.7417359195666 83.2407359807357, 83.06485930855025 74.09247779005408, 104.48798400674885 49.76291110342055 M65.34249832169453 94.20938468772519 C80.86508955000457 80.02992438549745, 94.46364393665344 62.78686087411969, 106.81536606837933 48.82240806867986 M70.39365944214879 93.56708659347217 C79.49829577527377 84.32139173964863, 89.78520444360196 71.35950420324036, 107.86515351973878 56.29261092822043 M72.06105977617918 94.64861057441752 C83.14131652280945 82.67597037390439, 94.10062161690311 70.03946995669402, 105.40351659275996 54.61650873328534 M77.70576358940654 96.28573331164614 C82.84628963726728 86.55743248522097, 90.96242574779643 78.06652700506875, 107.4009836852544 60.150570838324896 M76.631111487562 93.75412517341272 C84.64969962035423 85.95559969194028, 92.67423556609552 76.25009632977628, 105.45788773670728 60.96603852006065 M81.97926276418995 93.12365574012466 C89.579946952885 85.88769604329539, 99.16486682012918 75.24288038667609, 107.84414746093964 67.28932522855446 M81.78164163101148 93.7539360820777 C88.35842994904692 87.25265240491267, 93.87350407970862 80.85318911359214, 105.43870030942773 67.94987459726379 M87.40032992414302 93.59588827372832 C91.95516126494158 89.57877063529392, 97.44954870811046 80.58287604060158, 106.76305739141006 73.17071725306138 M86.75412101573414 94.44567046867056 C93.43767441228714 89.1275856943569, 98.40368938920369 81.76745486422647, 105.78607095709938 73.05854664248452 M93.63093664287175 93.97206448638654 C97.25609934262705 92.0494510136577, 99.18045760237402 85.46968401112915, 104.82768852128115 80.78002756599788 M92.42597531689847 93.28389843055821 C97.51568429800109 88.80011475703816, 100.36830315420474 85.33514427983957, 106.82683507590022 79.58336558331256 M98.50546440975744 94.84125426545928 C100.23537665788183 90.84807745975317, 102.0004935930977 88.44577882990656, 104.82316000701792 86.16425385394874 M97.98150358917195 93.92848378330658 C100.45323200627206 91.85133919918685, 102.72696011115647 89.0250947052889, 106.37714105712182 85.18352341944161 M103.96368315601208 94.47761118092302 C104.57402823350324 93.12299277210718, 106.07726278205662 91.54331004482381, 106.01899117329552 91.13052154586873 M103.71561066964128 94.17062157594327 C104.21224057338488 93.40324727192778, 104.9924771148232 92.66663820797694, 106.19852157407834 91.24249773354492" stroke="#fa5252" stroke-width="0.5" fill="none"></path><path d="M1.882696844637394 -0.3406125083565712 C20.47180851772428 -1.6884087135642767, 44.53721566200257 -0.2832771351188421, 105.28724000602962 -1.6376689448952675 M0.7980852834880352 0.374719250947237 C32.30947556495667 -0.29989284925162796, 64.91127035692335 0.21310036726295944, 105.1337985508144 -0.4101536385715008 M105.4463948979974 0.9281212314963341 C106.95063601568343 24.235679799318316, 107.20355878904464 43.82902785688639, 107.19027063995601 91.55406131595373 M106.61441702768208 0.5243432410061359 C107.01894976854325 18.15951462313533, 105.91310491323472 36.75390307679773, 106.72815687581898 92.8605526573956 M107.34838793426754 92.03397502750158 C76.99290601238609 92.25501936636866, 49.29389534294605 91.58399432860315, -1.7244096025824547 93.02407374233007 M105.78595430776478 91.80039011314511 C69.19398674815893 93.31115621171892, 30.614054558426133 92.79032832227648, 0.6053330413997173 92.03124140575528 M1.2354044690728188 90.20912661403418 C1.0521983455121517 65.0972612529993, 1.1852328132092953 34.708197100460524, 1.3539902940392494 -1.5345164313912392 M-0.6454327590763569 92.31528662517667 C0.04051847070455561 67.56891381368041, 1.0801890572905541 42.864033464342356, 0.16266591474413872 0.04637061432003975" stroke="#343a40" stroke-width="1" fill="none"></path></g><g transform="translate(224 68.5) rotate(0 81.5 17.5)"><text x="0" y="25" font-family="Virgil, Segoe UI Emoji" font-size="28px" fill="#343a40" text-anchor="start" style="white-space: pre;" direction="ltr">MiddleIndex</text></g><g stroke-linecap="round"><g transform="translate(362 292) rotate(0 146.58407642692327 10.572629155767572)"><path d="M-0.9533997550606728 -1.5595765337347984 C1.5941398870944976 5.958533285558224, -1.2567710149288178 17.283749122917655, 0.793916366994381 23.136951185762882 M-0.7110837809741497 -0.7251914031803608 C0.15119965121150017 7.67029304727912, 0.32688207671046254 12.961479859799148, -0.9141390435397625 23.59422929212451 M1.3552186472475407 25.191302086049234 C60.10246064946029 25.456829072858334, 119.20665015659247 24.721257322737408, 293.60181813569017 23.840674299358334 M0.19031180727918742 23.674797973656958 C91.29931061977955 25.76396954886524, 182.22442488694912 26.482446699587936, 293.30166297264344 24.553918872114103 M293.512862585485 24.389863945543766 C291.8672763141617 14.634698565676807, 291.13161504592745 7.226189985126254, 294.1215526089072 -4.534015439450741 M292.57206999138 23.390553902834654 C292.6697884430364 16.65639184601605, 293.8096966375783 9.684875510632992, 293.37887953594327 -2.105920482426882" stroke="#2b8a3e" stroke-width="2" fill="none"></path></g></g></svg>