<svg version="1.1" xmlns="http://www.w3.org/2000/svg" viewBox="0 0 615 377" width="615" height="377">
  <!-- svg-source:excalidraw -->
  
  <defs>
    <style>
      @font-face {
        font-family: "Virgil";
        src: url("https://excalidraw.com/Virgil.woff2");
      }
      @font-face {
        font-family: "Cascadia";
        src: url("https://excalidraw.com/Cascadia.woff2");
      }
    </style>
  </defs>
  <g stroke-linecap="round" transform="translate(10 185) rotate(0 297.5 50)"><path d="M-0.197047558426857 0.3173071771860123 C168.64761648140848 2.6145729718357322, 337.9714400671422 1.3223491368442772, 594.6089681237936 -0.29969635903835296 M0.07909650355577469 -0.3326768592000008 C219.68613599427047 -2.4129862970858813, 439.55069043859845 -2.0629490561038257, 595.3367370083928 0.23213212937116623 M593.4227441772819 0.284181572496891 C597.6401869989932 22.65220366418362, 597.3195647932589 43.148132555186756, 596.2765513882041 100.41206000000238 M594.8488186486065 0.32498688623309135 C593.9739930406213 22.816495005041364, 594.2423192039132 45.930023845285184, 594.5408820994198 99.91982109472156 M594.9590557664633 99.58090294897556 C435.4644833985716 97.37955740712583, 275.77387526407836 98.40988606236876, 0.7719256967306137 99.22530688345432 M594.6037013962865 99.87010014504195 C417.35411656312647 98.07063043959438, 239.61995683982968 98.06080745108424, 0.1544479802250862 100.15845344513654 M0.6251820549368858 98.16297385841608 C0.4042666666209698 72.99808344244957, 1.0475269071757793 44.15690060704946, -0.11373839527368546 1.7339217439293861 M0.12350379303097725 99.6515933983028 C0.5398452281951904 79.52814038470387, 0.5902682542800903 58.8155264519155, 0.779045332223177 -0.7027682550251484" stroke="#862e9c" stroke-width="2" fill="none"></path></g><g stroke-linecap="round"><g transform="translate(103 185) rotate(0 1.186184622429323 48.78772569820285)"><path d="M1.2643624767661095 0.04111597687005997 C0.16094984959810965 32.99708658281714, 0.6029458864405751 68.21100736346096, 1.7444437965750694 98.04650447517633 M0.8864006884396076 -0.5523683317005634 C1.7951101044192912 39.46472697447985, 1.1026392033323646 77.92020956207067, 1.2851635105907917 98.12781972810626" stroke="#862e9c" stroke-width="2" fill="none"></path></g></g><g stroke-linecap="round"><g transform="translate(202 185) rotate(0 0.5222814905345672 48.78063637576997)"><path d="M0.0008065477013587952 -1.0671359077095985 C0.5697299956157803 31.370695383511485, 1.950600976757705 61.736744026876984, -0.2427520975470543 98.11349930614233 M0.990289282053709 0.25393401458859444 C0.8275881817564368 28.44245452631265, 1.492166487313807 57.05047222983092, 1.2245163433253765 98.62840865924954" stroke="#862e9c" stroke-width="2" fill="none"></path></g></g><g stroke-linecap="round"><g transform="translate(309 183) rotate(0 1.2215687092393637 50.031635189428926)"><path d="M0.4717666134238243 0.6461965814232826 C1.1851623768731951 24.586851049102847, 0.9412594898417592 50.008472702167936, 0.9189805015921593 100.10779235512018 M0.9660863764584064 -0.04452197626233101 C1.827521474696696 20.2226837034151, 0.5387954142317177 42.16434740711004, 1.971370805054903 98.04013080522418" stroke="#862e9c" stroke-width="2" fill="none"></path></g></g><g stroke-linecap="round"><g transform="translate(406 183) rotate(0 1.094921063390359 50.680118180811405)"><path d="M-0.30302152782678604 0.8478302732110023 C2.36030466388911 19.336242172159256, 2.857058260031044 38.948425727747384, 2.2882582172751427 100.51240608841181 M0.6305438168346882 0.9805824272334576 C0.6127304974570871 36.131277299635116, 1.112228073142469 71.82688383866102, 1.842664945870638 99.27960212156177" stroke="#862e9c" stroke-width="2" fill="none"></path></g></g><g stroke-linecap="round"><g transform="translate(506 185) rotate(0 0.8016043642416548 48.706083822995424)"><path d="M0.5636858716607094 1.6807109341025352 C2.350915783531964 29.46474525328726, 2.950773192457855 56.36991679999978, 1.09303829818964 98.05169191211462 M-0.6207612045109272 -0.7641029469668865 C1.0913328280672432 30.222966257221998, 1.2169812778010964 61.209548473469916, 1.0747276060283184 98.17627059295774" stroke="#862e9c" stroke-width="2" fill="none"></path></g></g><g transform="translate(39 200) rotate(0 20.5 35.480769230769226)"><text x="0" y="49.96153846153845" font-family="Virgil, Segoe UI Emoji" font-size="56.76923076923074px" fill="#343a40" text-anchor="start" style="white-space: pre;" direction="ltr">3</text></g><g transform="translate(132 199) rotate(0 18.5 35.5)"><text x="0" y="50" font-family="Virgil, Segoe UI Emoji" font-size="56.76923076923074px" fill="#343a40" text-anchor="start" style="white-space: pre;" direction="ltr">8</text></g><g transform="translate(238 200) rotate(0 26.5 35.5)"><text x="0" y="50" font-family="Virgil, Segoe UI Emoji" font-size="56.76923076923074px" fill="#343a40" text-anchor="start" style="white-space: pre;" direction="ltr">12</text></g><g transform="translate(340 199) rotate(0 14 35.5)"><text x="0" y="50" font-family="Virgil, Segoe UI Emoji" font-size="56.76923076923074px" fill="#343a40" text-anchor="start" style="white-space: pre;" direction="ltr">6</text></g><g transform="translate(438 199) rotate(0 27 35.5)"><text x="0" y="50" font-family="Virgil, Segoe UI Emoji" font-size="56.76923076923074px" fill="#343a40" text-anchor="start" style="white-space: pre;" direction="ltr">10</text></g><g transform="translate(535 199) rotate(0 21.5 35.5)"><text x="0" y="50" font-family="Virgil, Segoe UI Emoji" font-size="56.76923076923074px" fill="#343a40" text-anchor="start" style="white-space: pre;" direction="ltr">2</text></g><g transform="translate(21 10) rotate(0 64 16)"><text x="0" y="25" font-family="Helvetica, Segoe UI Emoji" font-size="28px" fill="#343a40" text-anchor="start" style="white-space: pre;" direction="ltr">Search 10</text></g><g stroke-linecap="round"><g transform="translate(59 161) rotate(0 45.89963083243464 -28.245158205749476)"><path d="M-0.5672200307250023 -1.0781031265854835 C6.706854126354059 -10.51113342990478, 29.389748117824396 -55.70193783193827, 44.48397659212351 -55.565921606123446 C59.578205066422626 -55.429905380308625, 82.12558117459218 -9.571121261020503, 89.99815081506968 -0.2620057716965676 M1.335850723804906 0.9702887866180392 C8.420792524538314 -8.310714677742993, 28.61824701072959 -57.45187840548344, 43.790018839361146 -57.46060519811697 C58.9617906679927 -57.469331990750504, 84.27415557555543 -8.916212363413845, 92.36648169559426 0.9179280308168383" stroke="#c92a2a" stroke-width="2" fill="none"></path></g><g transform="translate(59 161) rotate(0 45.89963083243464 -28.245158205749476)"><path d="M66.47156664487656 -16.143927986377754 C78.06092466425302 -11.895755118375863, 85.8161321671201 -2.416374186222699, 92.84776724529452 1.0526976120751352 M67.43706947696145 -16.356720416450777 C76.12438098597424 -10.567987245121785, 86.68688642252685 -3.967680903326455, 92.85508929220028 0.49522379982285214" stroke="#c92a2a" stroke-width="2" fill="none"></path></g><g transform="translate(59 161) rotate(0 45.89963083243464 -28.245158205749476)"><path d="M83.59508546112876 -27.453441934169504 C88.94669617970932 -19.10213033062908, 90.36687003773353 -5.438670639028423, 92.84776724529452 1.0526976120751352 M84.56058829321366 -27.666234364242527 C86.76021499264287 -17.531933062296446, 90.93354435558058 -6.711788689846845, 92.85508929220028 0.49522379982285214" stroke="#c92a2a" stroke-width="2" fill="none"></path></g></g><g stroke-linecap="round"><g transform="translate(164 162) rotate(0 45.678939658165916 -27.940179875614106)"><path d="M-0.7272613629698753 -0.8332519188523293 C6.521742603679498 -10.029444453616938, 28.606470701595143 -55.686096633970735, 43.69662507921457 -55.41080123335123 C58.786779456834 -55.135505832731724, 81.99604826519887 -8.25419058551391, 89.81366490274668 0.8185204848647116 M1.0917876921314749 1.3436868784110994 C8.13849745245961 -8.186138988904034, 27.423748950979984 -56.81772057858296, 42.58930778217502 -57.22404662963934 C57.754866613370055 -57.63037268069572, 84.07661788873064 -10.567893083266291, 92.08514067930169 -1.094269427927211" stroke="#c92a2a" stroke-width="2" fill="none"></path></g><g transform="translate(164 162) rotate(0 45.678939658165916 -27.940179875614106)"><path d="M66.20123690044498 -18.920044353723686 C76.30037241916327 -14.754722778869596, 84.44468286081727 -7.951820711957101, 90.46091599416918 -0.04404545900411905 M67.02218297174191 -19.03223677960054 C73.55583909127998 -14.784448763616277, 81.19780587105933 -8.588146448210985, 91.54707758155651 -1.9380606855172664" stroke="#c92a2a" stroke-width="2" fill="none"></path></g><g transform="translate(164 162) rotate(0 45.678939658165916 -27.940179875614106)"><path d="M83.06519135053217 -30.61307829240803 C87.79765204791816 -22.844632087178063, 90.59805459238319 -12.336401202402755, 90.46091599416918 -0.04404545900411905 M83.8861374218291 -30.725270718284886 C85.93857450039542 -23.24679208094164, 89.05998637313866 -13.916052815643726, 91.54707758155651 -1.9380606855172664" stroke="#c92a2a" stroke-width="2" fill="none"></path></g></g><g stroke-linecap="round"><g transform="translate(265 161) rotate(0 44.9252550497651 -27.9896217299858)"><path d="M-1.1482628926634788 0.20190824121236806 C6.1374689792593315 -8.901568839450677, 28.554872248073416 -55.195046581327915, 43.91271156221628 -55.10018025785685 C59.270550876359145 -55.00531393438578, 83.07313938687244 -8.3886562799414, 90.9987729921937 0.7711061820387839 M0.4497603593487294 -0.7376938774902373 C7.5524801752188555 -10.126128677300487, 27.955061309359344 -56.678869248302654, 42.918839668752625 -56.750349642010406 C57.882618028145906 -56.82183003571816, 82.05918184928285 -10.772953267268216, 90.2324305157084 -1.1665762397367507" stroke="#c92a2a" stroke-width="2" fill="none"></path></g><g transform="translate(265 161) rotate(0 44.9252550497651 -27.9896217299858)"><path d="M66.27524327094167 -18.913650439527895 C75.05772766252265 -12.966377567388498, 82.53280992403526 -6.615436369969132, 89.9964213724155 -1.5639321315009147 M66.073447786071 -17.783500631746914 C73.28190305461492 -14.423112157486853, 78.54942472161986 -9.221567528153162, 90.04845071760006 -2.0554107273835687" stroke="#c92a2a" stroke-width="2" fill="none"></path></g><g transform="translate(265 161) rotate(0 44.9252550497651 -27.9896217299858)"><path d="M83.27297580579979 -30.411349820676516 C86.62929867822974 -20.98739705165901, 88.72414485119215 -10.99712707795156, 89.9964213724155 -1.5639321315009147 M83.07118032092912 -29.281200012895535 C85.8477073713724 -22.829686364691113, 86.66713605127401 -14.619338303474482, 90.04845071760006 -2.0554107273835687" stroke="#c92a2a" stroke-width="2" fill="none"></path></g></g><g stroke-linecap="round"><g transform="translate(362 161) rotate(0 45.19381494747944 -28.070838485658186)"><path d="M0.504323659837246 1.007384003698826 C7.854419678946337 -8.37434424807628, 29.937683982153736 -57.089830790460105, 45.03324254602194 -57.14906097501516 C60.12880110989014 -57.208291159570216, 83.54458036671082 -9.061118501921493, 91.07767504304647 0.6520028963685036 M-0.6900451480876655 0.4906566603016107 C6.510829992241537 -8.712111175454533, 29.45384920383183 -55.90841516722925, 44.627649419056254 -56.21489273567684 C59.80144963428068 -56.52137030412443, 82.77812934353638 -10.578458155787862, 90.35275614325889 -1.3482087503839284" stroke="#5c940d" stroke-width="2" fill="none"></path></g><g transform="translate(362 161) rotate(0 45.19381494747944 -28.070838485658186)"><path d="M68.09505725225559 -17.71026686359717 C73.41298911894597 -12.572700906069597, 85.45617479607189 -7.151697924070525, 92.23553516780026 -1.7219151135254651 M65.81891116446009 -19.558070839983955 C75.42717080731298 -13.390447626468937, 83.23417031470187 -7.378435199787775, 90.07202505012043 -0.5188056368101388" stroke="#5c940d" stroke-width="2" fill="none"></path></g><g transform="translate(362 161) rotate(0 45.19381494747944 -28.070838485658186)"><path d="M85.31942880193874 -28.865580714148628 C84.05150833502695 -19.44201622065475, 89.58866645176549 -9.80740352017548, 92.23553516780026 -1.7219151135254651 M83.04328271414325 -30.713384690535413 C86.84536279094198 -20.85848872416826, 88.77872689984719 -11.042433512831785, 90.07202505012043 -0.5188056368101388" stroke="#5c940d" stroke-width="2" fill="none"></path></g></g><g transform="translate(81 73) rotate(0 19 8)" stroke="none" fill="#862e9c"><path d="M 2.961473796655734 -1.1264121285739952 Q 2.961473796655734 -1.1264121285739952 4.229289873654194 -0.7869700145216708 5.497105950652654 -0.44752790046934643 4.229289873654194 -0.7869700145216708 2.961473796655734 -1.1264121285739952 4.229289873654194 -0.7869700145216708 5.497105950652654 -0.44752790046934643 7.465208593475479 0.19532806578332168 9.433311236298305 0.8381840320359898 11.807582818167187 1.7339838468536148 14.18185440003607 2.62978366167124 15.982012981038558 3.7021124439606146 17.782171562041047 4.774441226249989 20.12751354845215 6.114897559551055 22.47285553486325 7.455353892852123 24.46513786480832 8.624871234212684 26.45742019475339 9.794388575573246 28.634804677052912 10.542350578329062 30.81218915935244 11.290312581084878 32.40493620562256 11.957573925093149 33.99768325189268 12.62483526910142 35.49242250633818 13.016086777383393 36.98716176078368 13.407338285665364 38.29856069650143 13.493352038507405 39.60995963221919 13.579365791349446 40.25627215520652 14.731524739431492 40.90258467819384 15.88368368751354 40.35036147835819 17.08378354026707 39.798138278522536 18.283883393020602 38.5026484498609 18.542526434392343 37.20715862119927 18.801169475764087 36.236442189470495 17.90512275366332 35.26572575774173 17.00907603156255 35.42006998094707 15.697066892959121 35.57441420415241 14.385057754355692 36.72657315223446 13.738745231368366 37.878732100316505 13.092432708381041 39.078831953070036 13.644655908216691 40.27893180582357 14.19687910805234 40.537574847195316 15.492368936713971 40.79621788856706 16.787858765375603 39.900171166466286 17.758575197104378 39.004124444365516 18.729291628833153 37.69211530576209 18.57494740562781 36.380106167158665 18.42060318242247 35.16244256305805 18.181887862867555 33.94477895895744 17.94317254331264 32.35471998098376 17.4615972941608 30.764661003010072 16.98002204500896 29.284871319542766 16.181170375989723 27.805081636075464 15.382318706970487 26.294306194212982 15.071973276737168 24.7835307523505 14.76162784650385 23.344348471200327 14.197365491449002 21.90516619005015 13.633103136394151 20.29919384181614 12.435330009712557 18.693221493582133 11.237556883030962 16.693175870999386 10.225882347352467 14.693130248416642 9.214207811673974 12.796327695605507 8.212343289905933 10.899525142794372 7.210478768137892 8.55647274295795 6.179020486362171 6.213420343121527 5.147562204586451 4.16035504722457 4.49760006630269 2.107289751327614 3.847637928018928 0.858344518328725 3.406334961047449 -0.390600714670164 2.96503199407597 -1.0333189851665567 2.5053770277004768 -1.6760372556629493 2.045722061324983 -2.1172125683180036 1.3577979967666058 -2.558387880973058 0.6698739322082287 -2.5109545865651683 -0.14598466931314863 -2.463521292157279 -0.9618432708345259 -1.9455972969518787 -1.594006153551694 -1.4276733017464784 -2.226169036268862 -0.6370879683228938 -2.433171465409976 0.15349736510069079 -2.6401738945510904 1.5574855808782124 -1.8832930115625428 Z"></path></g><g transform="translate(88 97) rotate(0 8.5 -14.5)" stroke="none" fill="#862e9c"><path d="M -2.0957392774956163 -1.6646495799563024 Q -2.0957392774956163 -1.6646495799563024 -1.3823900965784581 -2.8346573497227228 -0.6690409156613 -4.004665119489143 -1.3823900965784581 -2.8346573497227228 -2.0957392774956163 -1.6646495799563024 -1.3823900965784581 -2.8346573497227228 -0.6690409156613 -4.004665119489143 -1.0174912624394037 -3.6534604543500975 -1.3659416092175074 -3.302255789211052 -1.0652327572298153 -4.4116200944551 -0.7645239052421231 -5.520984399699148 -0.12909923287062314 -6.90493000639953 0.5063254395008768 -8.288875613099911 1.262602755023852 -9.744453701211967 2.0188800705468273 -11.200031789324024 3.0537564057705486 -12.901610811102568 4.08863274099427 -14.603189832881114 5.012981363930832 -16.37003820298625 5.937329986867393 -18.13688657309139 6.83837631370286 -19.64246842592709 7.7394226405383275 -21.148050278762785 8.546814765612197 -22.739229725606936 9.354206890686065 -24.330409172451088 10.585204124349035 -25.707448908873133 11.816201358012005 -27.084488645295178 12.938556214165395 -28.10082817513232 14.060911070318783 -29.117167704969464 14.740087616099764 -30.26653338618629 15.419264161880747 -31.415899067403114 16.748330488049504 -31.54201389659577 18.077396814218258 -31.66812872578842 18.96063144011834 -30.667019917961245 19.84386606601842 -29.66591111013407 19.55310431468592 -28.36292229457959 19.26234256335342 -27.059933479025116 18.037296998725388 -26.52928706748237 16.81225143409736 -25.998640655939624 15.662885752880534 -26.677817201720607 14.51352007166371 -27.35699374750159 14.387405242471058 -28.686060073670347 14.261290413278404 -30.0151263998391 15.262399221105575 -30.898361025739185 16.263508028932748 -31.781595651639265 17.566496844487226 -31.490833900306765 18.869485660041708 -31.200072148974265 19.40013207158445 -29.97502658434624 19.9307784831272 -28.74998101971821 19.115163587846254 -27.68432470137899 18.29954869256531 -26.618668383039772 16.869194698505673 -24.74089746389256 15.43884070444604 -22.86312654474534 14.324737850563311 -21.283285889717977 13.210634996680582 -19.703445234690612 12.397059277796947 -18.240381810565626 11.583483558913311 -16.77731838644064 10.642554628219965 -14.9228798578633 9.701625697526618 -13.068441329285958 8.798172518039115 -11.622539075204873 7.894719338551612 -10.176636821123786 7.000480505295574 -8.902719072349711 6.106241672039537 -7.628801323575638 5.505247298908937 -6.2124360811827914 4.904252925778339 -4.796070838789945 4.144347418044779 -3.3441217582966147 3.384441910311218 -1.8921726778032841 2.214241412986259 -0.8802772166570705 1.0440409156613 0.13161824448914317 1.5698900965784581 -0.14483483777727724 2.0957392774956163 -0.42128792004369764 2.0957392774956163 0.10019645495630236 2.0957392774956163 0.6216808299563024 1.7129065726436923 1.1782379132150396 1.330073867791768 1.7347949964737768 0.6932196579656333 1.9600357171626495 0.05636544813949873 2.185276437851522 -0.5912536043857206 1.9931664963179028 -1.23887265691094 1.8010565547842834 -1.6498880858326133 1.2649754191172597 -2.0609035147542865 0.728894283450236 -2.0783213961249514 -0.4678776482530332 Z"></path></g><g transform="translate(188 69) rotate(0 15 7.5)" stroke="none" fill="#862e9c"><path d="M 2.891892145690632 -0.09311386861054127 Q 2.891892145690632 -0.09311386861054127 4.542994329215393 0.4411494176268024 6.194096512740154 0.975412703864146 4.542994329215393 0.4411494176268024 2.891892145690632 -0.09311386861054127 4.542994329215393 0.4411494176268024 6.194096512740154 0.975412703864146 8.061249026454114 1.8433525278603968 9.928401540168071 2.7112923518566476 12.215242043578089 3.7214199921038063 14.502082546988106 4.731547632350965 16.347424556090026 5.8023415644024725 18.192766565191945 6.87313549645398 19.798749124081347 7.669132471321658 21.404731682970745 8.465129446189337 23.070824470663492 9.23452405005063 24.73691725835624 10.003918653911924 26.997972705941375 10.884733267103211 29.25902815352651 11.765547880294497 30.506235090788863 12.230049155845718 31.75344202805121 12.694550431396939 32.31032535133765 13.906063102254656 32.86720867462409 15.117575773112373 32.214402139675 16.28021312643073 31.56159560472592 17.44285047974909 30.237292173753033 17.59809998898114 28.91298874278015 17.753349498213193 28.008983225156868 16.773218888799324 27.104977707533582 15.793088279385454 27.366558916006483 14.485626135085589 27.628140124479387 13.178163990785723 28.839652795337102 12.621280667499285 30.05116546619482 12.064397344212844 31.213802819513177 12.717203879161929 32.376440172831536 13.370010414111013 32.531689682063586 14.694313845083897 32.68693919129564 16.01861727605678 31.706808581881774 16.922622793680066 30.726677972467904 17.826628311303352 29.419215828168042 17.56504710283045 28.111753683868177 17.30346589435755 26.827351289808856 16.778949810296588 25.542948895749536 16.254433726235625 24.10718361570561 15.633390142974777 22.67141833566168 15.01234655971393 20.8263038691029 14.481402348123584 18.98118940254412 13.95045813653324 16.921496804860233 12.767812660071147 14.861804207176341 11.585167183609055 13.375101446892518 10.642087611355784 11.888398686608697 9.69900803910251 10.401657564630263 9.086159471779578 8.91491644265183 8.473310904456644 7.172344492035547 7.649914009933356 5.429772541419265 6.826517115410068 4.012533172204266 5.911684775041099 2.5952938029892674 4.99685243467213 1.5884899293658794 4.564312060742686 0.5816860557424912 4.1317716868132415 -0.4704755956465123 3.244097301044735 -1.5226372470355158 2.3564229152762284 -1.8649509716992947 1.7905956536098067 -2.2072646963630738 1.224768391943385 -2.356440072531474 0.4591145993854107 -2.505615448699874 -0.3065391931725635 -2.1762608555350074 -1.013649209276563 -1.8469062623701409 -1.7207592253805624 -1.1648239601100927 -2.099233472664345 -0.48274165785004464 -2.4777077199481274 0.2915360971666254 -2.3829818998158205 1.0658138521832954 -2.2882560796835136 1.9788529989369636 -1.1906849741470276 Z"></path></g><g transform="translate(195 95) rotate(0 5 -13)" stroke="none" fill="#862e9c"><path d="M -2.45004683249559 -0.9422820801534566 Q -2.45004683249559 -0.9422820801534566 -1.9391584233926786 -1.5723528460296872 -1.4282700142897669 -2.202423611905918 -1.9391584233926786 -1.5723528460296872 -2.45004683249559 -0.9422820801534566 -1.9391584233926786 -1.5723528460296872 -1.4282700142897669 -2.202423611905918 -0.6446063050136587 -2.411868896720772 0.1390574042624495 -2.621314181535626 0.8961635125180972 -2.3301330052732316 1.653269620773745 -2.038951829010837 2.0946293277454315 -1.3583655041192548 2.5359890347171183 -0.6777791792276727 2.493017933606354 0.13225145046289177 2.45004683249559 0.9422820801534563 1.9391584233926786 1.572352846029687 1.428270014289767 2.2024236119059175 0.6446063050136589 2.411868896720772 -0.13905740426244928 2.6213141815356265 -0.8961635125180968 2.3301330052732316 -1.6532696207737443 2.0389518290108373 -2.094629327745431 1.3583655041192562 -2.535989034717118 0.6777791792276753 -2.493017933606354 -0.13225145046289066 Z"></path></g><g transform="translate(211 65) rotate(0 -7 13.5)" stroke="none" fill="#862e9c"><path d="M 2.237727355002998 1.6788798836242136 Q 2.237727355002998 1.6788798836242136 1.6636028479706142 2.6738581132729937 1.08947834093823 3.6688363429217734 1.6636028479706142 2.6738581132729937 2.237727355002998 1.6788798836242136 1.6636028479706142 2.6738581132729937 1.08947834093823 3.6688363429217734 0.5573685745211064 4.253112283584178 0.0252588081039829 4.837388224246582 -0.6420030128114624 5.5422201168031044 -1.3092648337269077 6.247052009359628 -2.4328474047731774 7.403631076454918 -3.556429975819447 8.560210143550208 -4.771772165731539 9.90583101389039 -5.987114355643632 11.251451884230573 -6.948520995112224 12.864969407042526 -7.909927634580815 14.478486929854482 -8.545157771148725 16.140985558404054 -9.180387907716634 17.80348418695363 -9.968484734047934 19.695237626567305 -10.756581560379233 21.58699106618098 -10.901775909357639 23.136841873751433 -11.046970258336046 24.686692681321887 -11.043627391532265 25.84147918601641 -11.040284524728486 26.996265690710935 -11.650379842836973 28.193456957428626 -12.260475160945461 29.390648224146318 -13.587628271714198 29.600762114357966 -14.914781382482936 29.810876004569614 -15.864848116462333 28.860688429788333 -16.81491485044173 27.910500855007054 -16.604632169526525 26.583374478059433 -16.394349488611322 25.25624810111181 -15.197080637322962 24.646305051296785 -13.999811786034602 24.036362001481756 -12.80262051931691 24.64645731959024 -11.605429252599219 25.25655263769873 -11.39531536238757 26.583705748467466 -11.185201472175923 27.910858859236203 -12.1353890469572 28.8609255932156 -13.085576621738477 29.810992327195 -14.4127029986861 29.600709646279796 -15.739829375633724 29.39042696536459 -16.349772425448755 28.193158114076233 -16.959715475263785 26.995889262787877 -16.955738710523633 25.745860562341093 -16.951761945783478 24.495831861894306 -16.898378237538978 22.745984462199 -16.844994529294475 20.996137062503696 -16.114454365496623 19.593155454930486 -15.383914201698774 18.190173847357276 -14.39111043126188 16.137285251225848 -13.398306660824987 14.08439665509442 -12.707886178347309 12.429572766507953 -12.017465695869628 10.774748877921484 -11.012141149065421 9.056806804175913 -10.006816602261214 7.338864730430341 -8.706649943898778 5.874524921781427 -7.406483285536341 4.4101851131325125 -6.0103373258523 3.056743064555781 -4.614191366168258 1.7033010159790494 -3.745048557401811 1.1246013478332841 -2.875905748635364 0.5459016796875187 -2.7163611502272724 -0.010293711140414386 -2.556816551819181 -0.5664891019683475 -2.146175327009325 -1.2638237372827756 -1.7355341021994692 -1.961158372597204 -0.9934353581867816 -2.2839450874062814 -0.2513366141740939 -2.6067318022153594 0.5387631518371865 -2.4316770425789374 1.328862917848467 -2.2566222829425153 1.8651724497453697 -1.6505910171492644 2.4014819816422723 -1.0445597513560134 2.3196046683226355 0.3171600661341001 Z"></path></g><g transform="translate(294 72) rotate(0 13 9)" stroke="none" fill="#862e9c"><path d="M 3.227787370864909 -0.4552588259960711 Q 3.227787370864909 -0.4552588259960711 4.036568829010695 0.38779741899722586 4.845350287156481 1.2308536639905228 4.036568829010695 0.38779741899722586 3.227787370864909 -0.4552588259960711 4.036568829010695 0.38779741899722586 4.845350287156481 1.2308536639905228 5.428327184176229 2.0660155768596953 6.011304081195979 2.9011774897288682 7.2250922465752785 4.143715448325812 8.438880411954578 5.386253406922756 10.010866264435693 6.340503317080877 11.582852116916808 7.294753227238997 13.287523267530085 8.302114858719882 14.992194418143363 9.309476490200767 17.356104090140782 10.20711854175256 19.7200137621382 11.104760593304352 21.578767099537384 12.179052159543797 23.437520436936566 13.25334372578324 24.674249919973185 14.275166034069581 25.9109794030098 15.296988342355924 27.16396791547954 15.869106142897742 28.41695642794928 16.44122394343956 28.533597087589776 17.766654763407917 28.650237747230275 19.092085583376274 27.646501348561902 19.96551854817186 26.64276494989353 20.838951512967448 25.346161385600176 20.540302724144965 24.049557821306824 20.24165393532248 23.52904531365222 19.01713826315716 23.008532805997618 17.792622590991844 23.693237219024674 16.651766873214772 24.377941632051726 15.5109111554377 25.703372452020083 15.394270495797203 27.02880327198844 15.277629836156706 27.902236236784027 16.28136623482508 28.775669201579614 17.28510263349345 28.47702041275713 18.5817061977868 28.17837162393465 19.878309762080153 26.95385595176933 20.398822269734758 25.729340279604013 20.919334777389363 24.58848456182694 20.23463036436231 23.44762884404987 19.54992595133526 21.36477661859847 18.04978132324349 19.281924393147072 16.54963669515172 17.644202693269378 15.826598853829559 16.006480993391687 15.103561012507399 13.687008221288966 13.94308963466016 11.367535449186247 12.78261825681292 9.40611694444124 11.914534666197383 7.444698439696236 11.046451075581846 5.978562240863223 10.122307757958602 4.512426042030211 9.198164440335356 3.4813704076334613 7.792271845656515 2.450314773236712 6.386379250977675 1.8030422093139076 5.5799473817719 1.1557696453911033 4.773515512566126 0.21582574190644432 3.8508941739676237 -0.7241181615782146 2.9282728353691208 -1.3500354638998884 2.3100193330258585 -1.975952766221562 1.691765830682596 -2.284463569892274 0.9494986214980576 -2.592974373562986 0.20723141231351927 -2.4062711378619017 -0.5746134748545796 -2.219567902160817 -1.3564583620226784 -1.6089649173161664 -1.8792427542064507 -0.998361932471516 -2.402027146390223 -0.1970887850618201 -2.466065174563422 0.6041843623478758 -2.530103202736621 1.9159858666063925 -1.492681014366346 Z"></path></g><g transform="translate(318 68) rotate(0 -11.5 13.5)" stroke="none" fill="#862e9c"><path d="M -1.2010989675925192 3.3381605831457937 Q -1.2010989675925192 3.3381605831457937 -2.285844147230667 4.757287659540401 -3.3705893268688154 6.176414735935008 -2.285844147230667 4.757287659540401 -1.2010989675925192 3.3381605831457937 -2.285844147230667 4.757287659540401 -3.3705893268688154 6.176414735935008 -4.857565814613444 7.728157206732948 -6.344542302358073 9.279899677530887 -7.482511785417153 10.736661134104677 -8.620481268476233 12.193422590678468 -9.973702332398386 13.644704049007998 -11.326923396320536 15.095985507337527 -12.511990810276098 16.11186246504947 -13.69705822423166 17.127739422761408 -14.803007678382144 18.487233970497975 -15.90895713253263 19.846728518234546 -17.02075723398466 21.191252801528098 -18.132557335436694 22.53577708482165 -19.165147104239537 24.189834892052467 -20.197736873042384 25.843892699283288 -20.15916129762641 26.767571333202092 -20.12058572221044 27.6912499671209 -20.999291351359552 28.708671485327407 -21.87799698050867 29.72609300353392 -23.217598489100727 29.61323058026616 -24.557199997692784 29.500368156998398 -25.253290389941988 28.350268902922327 -25.949380782191188 27.200169648846256 -25.42808260725226 25.96100931167704 -24.906784432313334 24.721848974507825 -23.597871281511964 24.415227885756227 -22.288958130710594 24.10860679700463 -21.271536612504086 24.987312426153743 -20.254115094297575 25.86601805530286 -20.366977517565335 27.205619563894917 -20.479839940833095 28.545221072486974 -21.629939194909163 29.241311464736178 -22.780038448985234 29.937401856985378 -24.01919878615445 29.41610368204645 -25.258359123323668 28.894805507107524 -25.564980212075266 27.585892356306157 -25.871601300826864 26.27697920550479 -24.555863475648668 25.086228970086857 -23.24012565047047 23.89547873466892 -23.721729895840213 23.492365677881374 -24.203334141209954 23.089252621093827 -23.556002486437585 22.15009666009633 -22.90867083166522 21.21094069909883 -23.208721448278567 21.260236306318845 -23.50877206489191 21.30953191353886 -22.908543720409554 19.955067445574077 -22.308315375927197 18.600602977609295 -20.911647126366923 17.138845987010296 -19.514978876806648 15.677088996411296 -18.428060146701156 14.179977583143407 -17.341141416595665 12.682866169875517 -16.075545701410498 11.566519196399929 -14.80994998622533 10.45017222292434 -13.051927694165062 8.913811274836231 -11.293905402104794 7.377450326748122 -9.838647495626352 5.576964709756803 -8.38338958914791 3.776479092765483 -6.955114554596599 2.5674415488972877 -5.526839520045288 1.3584040050290924 -4.716821947372088 0.3398532280943556 -3.906804374698887 -0.6786975488403812 -2.6860687022768515 -1.4854057753885268 -1.4653330298548162 -2.2921140019366724 -0.7987250304929823 -2.5536256472389525 -0.13211703113114848 -2.815137292541233 0.7078471145858434 -2.585143823090662 1.5478112603028353 -2.35515035364009 2.0921697593868913 -1.675363190952429 2.636528258470947 -0.9955760282647674 2.6773546663368357 -0.12565076337084824 2.718181074202725 0.744274501523071 2.2398810906842432 1.4720559851060258 1.7615811071657617 2.1998374686889806 0.2802410697866212 2.7689990259173873 Z"></path></g><g transform="translate(391 87) rotate(0 17.5 -7.5)" stroke="none" fill="#862e9c"><path d="M 2.075152993740482 0.17241674468741353 Q 2.075152993740482 0.17241674468741353 1.4881969464888072 -0.5331016053505153 0.9012408992371324 -1.2386199553884443 1.4881969464888072 -0.5331016053505153 2.075152993740482 0.17241674468741353 1.4881969464888072 -0.5331016053505153 0.9012408992371324 -1.2386199553884443 1.883702829561549 -0.5978844522580369 2.8661647598859656 0.0428510508723704 3.465716230500017 0.7604928745331867 4.0652677011140685 1.478134698194003 5.144872653722109 2.4624806131611976 6.224477606330149 3.4468265281283927 7.481481214186269 4.575794162767291 8.73848482204239 5.7047617974061895 10.081112008546736 6.696726733193582 11.423739195051084 7.688691668980976 12.783769674641228 7.055027806603269 14.143800154231373 6.42136394422556 15.16731090509753 5.111857460731894 16.19082165596369 3.8023509772382287 17.339108274882012 2.3200190208255407 18.487394893800335 0.8376870644128527 19.151760366846315 -1.1807056702096586 19.816125839892294 -3.19909840483217 20.69665746286333 -4.916211370712135 21.57718908583437 -6.633324336592101 22.60354728895217 -8.571692809159416 23.629905492069973 -10.510061281726731 24.7349614275802 -12.326987159338833 25.840017363090425 -14.143913036950934 26.821167258499223 -16.009379892365384 27.80231715390802 -17.874846747779834 28.75951366368569 -19.43443012373549 29.716710173463362 -20.994013499691142 30.431973099740574 -22.55245282171304 31.147236026017783 -24.110892143734937 31.84991423054622 -25.26919425644406 32.55259243507466 -26.427496369153186 33.66876768577778 -27.095300931318388 34.7849429364809 -27.76310549348359 35.98127952753082 -27.252626420018384 37.177616118580744 -26.74214734655318 37.46781887787161 -25.474238642414427 37.75802163716247 -24.206329938275676 36.902838850284056 -23.226292936648846 36.04765606340565 -22.246255935022017 34.75212564383176 -22.362062046646397 33.45659522425788 -22.477868158270777 32.78879066209268 -23.5940434089739 32.12098609992748 -24.71021865967702 32.631465173392684 -25.90655525072694 33.14194424685789 -27.10289184177686 34.40985295099664 -27.393094601067727 35.677761655135384 -27.683297360358594 36.65779865676222 -26.82811457348018 37.63783565838905 -25.972931786601766 37.52202954676467 -24.677401367027883 37.40622343514029 -23.381870947454004 36.34024338901638 -21.88908410544189 35.27426334289246 -20.396297263429773 34.366678490179375 -18.65679760501336 33.45909363746629 -16.917297946596946 32.352380486662675 -15.25089036099019 31.245667335859064 -13.584482775383435 30.369124215387963 -11.748507077584602 29.49258109491686 -9.91253137978577 28.410190497253303 -7.936171982405229 27.32779989958975 -5.959812585024688 26.471012431593557 -3.987590172877688 25.614224963597366 -2.0153677607306886 24.721141404181047 -0.04930945817101784 23.828057844764725 1.916748844388653 22.253474644576315 4.310741813128243 20.678891444387904 6.704734781867833 19.54013470739877 8.504237947942432 18.401377970409634 10.303741114017033 16.972547181079847 11.38332670962497 15.543716391750056 12.462912305232907 13.980667546463103 12.683309339276079 12.417618701176151 12.903706373319253 10.719608783015552 12.668961862936067 9.021598864854951 12.434217352552881 7.773253971751234 11.419672739633192 6.524909078647516 10.405128126713503 5.370075938399734 9.154652925077372 4.215242798151952 7.904177723441242 2.9282868806929345 6.574256283899803 1.641330963233917 5.244334844358365 0.8221683388157549 4.481188117473109 0.003005714397592729 3.7180413905878535 -1.0360736396714447 2.56968732295022 -2.075152993740482 1.4213332553125864 -2.075152993740482 1.0228957553125864 -2.075152993740482 0.6244582553125864 -2.0605171923748036 -0.04504436491651581 -2.045881391009125 -0.714546985145618 -1.6405170124361605 -1.24758327449129 -1.235152633863196 -1.7806195638369622 -0.5938950928693378 -1.9735877770062813 0.04736244812452017 -2.1665559901756004 0.6795745664217963 -1.9457488284862214 1.3117866847190724 -1.7249416667968425 1.6934698392297771 -0.7762624610547144 Z"></path></g><g transform="translate(152 332) rotate(0 162.5 17.5)"><text x="0" y="25" font-family="Virgil, Segoe UI Emoji" font-size="28px" fill="#862e9c" text-anchor="start" style="white-space: pre;" direction="ltr">Linear Search Algorithm</text></g></svg>