<svg version="1.1" xmlns="http://www.w3.org/2000/svg" viewBox="0 0 549 334" width="549" height="334">
  <!-- svg-source:excalidraw -->
  
  <defs>
    <style>
      @font-face {
        font-family: "Virgil";
        src: url("https://excalidraw.com/Virgil.woff2");
      }
      @font-face {
        font-family: "Cascadia";
        src: url("https://excalidraw.com/Cascadia.woff2");
      }
    </style>
  </defs>
  <g transform="translate(28 63) rotate(0 144 96)"><text x="0" y="25" font-family="Helvetica, Segoe UI Emoji" font-size="28px" fill="#5f3dc4" text-anchor="start" style="white-space: pre;" direction="ltr">function recursiveFn() {</text><text x="0" y="57" font-family="Helvetica, Segoe UI Emoji" font-size="28px" fill="#5f3dc4" text-anchor="start" style="white-space: pre;" direction="ltr">  console.log("");</text><text x="0" y="89" font-family="Helvetica, Segoe UI Emoji" font-size="28px" fill="#5f3dc4" text-anchor="start" style="white-space: pre;" direction="ltr">  recursiveFn();</text><text x="0" y="121" font-family="Helvetica, Segoe UI Emoji" font-size="28px" fill="#5f3dc4" text-anchor="start" style="white-space: pre;" direction="ltr">}</text><text x="0" y="153" font-family="Helvetica, Segoe UI Emoji" font-size="28px" fill="#5f3dc4" text-anchor="start" style="white-space: pre;" direction="ltr"></text><text x="0" y="185" font-family="Helvetica, Segoe UI Emoji" font-size="28px" fill="#5f3dc4" text-anchor="start" style="white-space: pre;" direction="ltr">recursiveFn();</text></g><g stroke-linecap="round" transform="translate(10 10) rotate(0 264.5 157)"><path d="M-0.2964154288172722 0.5308355614542961 C138.91614906396717 0.9409440969601275, 278.3620097603649 0.10311512700468309, 528.2142768338323 0.35704591721296314 M0.3711619757115841 0.3597295738756657 C142.7657002137974 -0.09812918490916475, 286.1284414242953 -0.22905944175273166, 528.8751340053975 -0.20642545446753502 M529.93403417254 -1.2999277208648634 C530.2552208601757 66.26719203231491, 529.4570049540974 132.16684404467892, 529.5447254036707 314.4058437866283 M529.4046152189434 0.21464561836882604 C528.1647406513654 123.13035447568399, 528.5243463401257 246.16102025058717, 528.3665989515573 314.1836714249574 M528.9721836045385 313.67477467507126 C367.72736099455506 313.96400936647507, 206.22374474443492 313.6991326670274, 0.0025444462895393375 313.6229668423533 M529.1690180681646 314.2711683727801 C354.897948837094 312.3575725326612, 181.06847125031058 312.70469250775125, 0.03793608173727989 314.01260154023765 M0.2559005153288081 313.29065543689717 C-0.031946514817977834 197.49220091137065, 0.24369684648358725 81.56250053086819, -0.023446754526261982 1.2959570628077073 M0.4942645491260312 313.76861806265447 C-1.5175599236509072 191.43323526226615, -1.9598617776381002 70.45948385920222, -0.10686586994004024 0.038232924316582824" stroke="#000000" stroke-width="1" fill="none"></path></g><g stroke-linecap="round"><g transform="translate(227 255) rotate(0 138.46170160306968 -99.98232126038434)"><path d="M1.374391469729702 1.3804668283480221 C57.776091201544695 -2.8051768460837296, 116.68341037373098 -1.9502295138619539, 274.84617585496943 -3.2789648909764324 M-0.002839359596823686 -0.373847560266218 C102.1823509323279 -0.7324020111831859, 205.68694773421458 -2.3167336382135613, 274.06074649656847 -2.2178251403423337 M274.99619852378964 -2.5010581500828266 C276.0403931210749 -42.712942457553005, 273.53428469868373 -81.02974181899802, 276.2185048945248 -200.55023639276624 M274.344208991155 -2.6877879556268454 C274.30780218089 -46.24580745371059, 275.5463438955508 -91.68681189892814, 276.9262425657362 -201.34510934911668 M275.1568469889462 -199.83899657800794 C243.94099067199974 -200.78559776877987, 211.5391259472072 -197.25755493750796, 134.13719855621457 -198.2884929664433 M276.61314604245126 -200.82738483510911 C240.4428581928089 -199.96537276597692, 203.73758844725785 -197.48301070051266, 133.34859720431268 -196.86435062251985" stroke="#862e9c" stroke-width="2" fill="none"></path></g><g transform="translate(227 255) rotate(0 138.46170160306968 -99.98232126038434)"><path d="M163.12508516490016 -205.8395134567878 C154.8444359062527 -207.01110551572003, 149.73087310317055 -203.07663001346637, 134.43816139735281 -198.51118838228285 M161.35171691245887 -208.09842705015456 C150.28635333051906 -203.4177650355775, 140.8602103473106 -200.46348270956565, 133.42681641504169 -197.14482952281833" stroke="#862e9c" stroke-width="2" fill="none"></path></g><g transform="translate(227 255) rotate(0 138.46170160306968 -99.98232126038434)"><path d="M163.48444530449416 -185.3214515922766 C155.0320932528996 -190.85367739188501, 149.84212801365842 -191.28148289687144, 134.43816139735281 -198.51118838228285 M161.71107705205287 -187.58036518564333 C150.41501404834764 -190.58815620411474, 140.8542098641392 -195.3225030510234, 133.42681641504169 -197.14482952281833" stroke="#862e9c" stroke-width="2" fill="none"></path></g></g><g stroke-linecap="round"><g transform="translate(243 153) rotate(0 61.88372114388039 -39.941413518972695)"><path d="M0.7385815270245075 0.0688910000026226 C42.09857160663232 0.33302420925348997, 82.24682486644015 1.0021290858089924, 122.3493461497128 0.28799278661608696 M-0.9472171906381845 0.8789907041937113 C41.298167602736505 0.7283338816091418, 82.1758278437145 -0.37468815080821516, 123.4315540548414 -0.45421875081956387 M123.75717066600919 -2.6147810705006123 C124.80960111655295 -21.66451707052067, 125.37045867126436 -38.0004788553156, 123.41992579773068 -80.7618177421391 M123.43254444561899 -0.6470655258744955 C124.98587627530098 -22.124065450038763, 124.25678080495447 -41.34125344289467, 123.24744812212884 -78.43169671855867" stroke="#862e9c" stroke-width="2" fill="none"></path></g><g transform="translate(243 153) rotate(0 61.88372114388039 -39.941413518972695)"><path d="M134.99705947682585 -50.45658379343499 C132.19961360849044 -60.07587030778811, 128.08055198689897 -68.2287572325574, 121.59679427184165 -77.14370393194258 M133.31126075916316 -49.6464840892439 C130.3052938507138 -59.3378771491275, 125.95559067855383 -69.4542181572999, 122.67900217697024 -77.88591546937823" stroke="#862e9c" stroke-width="2" fill="none"></path></g><g transform="translate(243 153) rotate(0 61.88372114388039 -39.941413518972695)"><path d="M114.48319417502853 -49.90764594125528 C118.41406076600002 -59.54564215162938, 121.02106986550712 -67.87851440636597, 121.59679427184165 -77.14370393194258 M112.79739545736584 -49.09754623706419 C116.66288169553928 -58.89269115402556, 119.18512107649346 -69.19292092864504, 122.67900217697024 -77.88591546937823" stroke="#862e9c" stroke-width="2" fill="none"></path></g></g><g transform="translate(286 178) rotate(0 90.5 16)"><text x="0" y="25" font-family="Helvetica, Segoe UI Emoji" font-size="28px" fill="#343a40" text-anchor="start" style="white-space: pre;" direction="ltr">Recursive Call</text></g></svg>